<?xml version="1.0" encoding="UTF-8" standalone="no"?>
<!-- Created with Inkscape (http://www.inkscape.org/) -->

<svg
   xmlns:dc="http://purl.org/dc/elements/1.1/"
   xmlns:cc="http://creativecommons.org/ns#"
   xmlns:rdf="http://www.w3.org/1999/02/22-rdf-syntax-ns#"
   xmlns:svg="http://www.w3.org/2000/svg"
   xmlns="http://www.w3.org/2000/svg"
   xmlns:sodipodi="http://sodipodi.sourceforge.net/DTD/sodipodi-0.dtd"
   xmlns:inkscape="http://www.inkscape.org/namespaces/inkscape"
   width="210mm"
   height="297mm"
   viewBox="0 0 744.09448819 1052.3622047"
   id="svg2"
   version="1.1"
   inkscape:version="0.91 r13725"
   sodipodi:docname="dessin.svg">
  <defs
     id="defs4" />
  <sodipodi:namedview
     id="base"
     pagecolor="#ffffff"
     bordercolor="#666666"
     borderopacity="1.0"
     inkscape:pageopacity="0.0"
     inkscape:pageshadow="2"
     inkscape:zoom="0.35"
     inkscape:cx="-62.142857"
     inkscape:cy="520"
     inkscape:document-units="px"
     inkscape:current-layer="layer1"
     showgrid="false"
     inkscape:window-width="1223"
     inkscape:window-height="553"
     inkscape:window-x="1332"
     inkscape:window-y="52"
     inkscape:window-maximized="0"
     showguides="false" />
  <metadata
     id="metadata7">
    <rdf:RDF>
      <cc:Work
         rdf:about="">
        <dc:format>image/svg+xml</dc:format>
        <dc:type
           rdf:resource="http://purl.org/dc/dcmitype/StillImage" />
        <dc:title></dc:title>
      </cc:Work>
    </rdf:RDF>
  </metadata>
  <g
     inkscape:label="Calque 1"
     inkscape:groupmode="layer"
     id="layer1">
    <ellipse
       style="fill:#ff0000;fill-opacity:0.87058824"
       id="path3336"
       cx="152.85715"
       cy="262.36221"
       rx="78.571426"
       ry="75.714287" />
    <path
       sodipodi:type="star"
       style="fill:#ff0000;fill-opacity:0.87058824"
       id="path3338"
       sodipodi:sides="5"
       sodipodi:cx="191.42857"
       sodipodi:cy="509.50507"
       sodipodi:r1="187.18102"
       sodipodi:r2="93.590508"
       sodipodi:arg1="0.54565505"
       sodipodi:arg2="1.1739736"
       inkscape:flatsided="false"
       inkscape:rounded="0"
       inkscape:randomized="0"
       d="M 351.42857,606.64792 227.60036,595.82299 148.48295,691.6929 120.51304,570.58019 4.8867219,524.96048 111.42858,460.93364 l 7.65641,-124.06443 93.8164,81.54194 120.35824,-31.05633 -48.56013,114.42254 z"
       inkscape:transform-center-x="13.270929"
       inkscape:transform-center-y="4.7759868" />
    <path
       sodipodi:type="star"
       style="fill:#ff0000;fill-opacity:0.87058824"
       id="path3340"
       sodipodi:sides="5"
       sodipodi:cx="180"
       sodipodi:cy="472.36221"
       sodipodi:r1="96.383591"
       sodipodi:r2="48.191795"
       sodipodi:arg1="0.20902294"
       sodipodi:arg2="0.83734147"
       inkscape:flatsided="false"
       inkscape:rounded="0"
       inkscape:randomized="0"
       d="m 274.28572,492.36221 -62.0242,15.80005 -22.14676,60.05134 -34.19327,-54.10603 -63.955943,-2.50594 40.891593,-49.23942 -17.38018,-61.60009 59.46566,23.6744 53.2144,-35.56501 -4.13979,63.871 z"
       inkscape:transform-center-x="-3.125632"
       inkscape:transform-center-y="6.1803399" />
    <path
       sodipodi:type="star"
       style="fill:#ff0000;fill-opacity:0.87058824"
       id="path3342"
       sodipodi:sides="5"
       sodipodi:cx="160"
       sodipodi:cy="483.79077"
       sodipodi:r1="100.16313"
       sodipodi:r2="50.081566"
       sodipodi:arg1="-0.057080782"
       sodipodi:arg2="0.57123775"
       inkscape:flatsided="false"
       inkscape:rounded="0"
       inkscape:randomized="0"
       d="m 260,478.07649 -57.86976,32.79207 -5.79393,66.26205 L 147.26645,532.2265 82.457074,547.19225 110,486.64791 75.739528,429.6352 l 66.092322,7.48565 43.63524,-50.20154 13.30437,65.17072 z"
       inkscape:transform-center-x="-7.8697638"
       inkscape:transform-center-y="-1.7658114" />
    <path
       sodipodi:type="spiral"
       style="fill:none;fill-rule:evenodd;stroke:#000000;stroke-width:1px;stroke-linecap:butt;stroke-linejoin:miter;stroke-opacity:1"
       id="path3344"
       sodipodi:cx="491.42856"
       sodipodi:cy="375.21936"
       sodipodi:expansion="1"
       sodipodi:revolution="3"
       sodipodi:radius="151.45552"
       sodipodi:argument="-17.259893"
       sodipodi:t0="0"
       d="m 491.42856,375.21936 c -0.14326,7.59239 -10.30507,3.55271 -12.61905,-0.2381 -6.27075,-10.27286 3.25959,-22.07237 13.09525,-24.99999 17.59369,-5.23683 34.1568,9.20947 37.38094,25.95239 4.73155,24.57092 -15.18904,46.45817 -38.80955,49.76189 -31.48242,4.40334 -58.84348,-21.17245 -62.14283,-51.6667 -4.15189,-38.37389 27.15607,-71.27051 64.52385,-74.52377 45.25739,-3.94014 83.72137,33.13946 86.90472,77.38099 3.75146,52.13711 -39.12268,96.18715 -90.23814,99.28567 -59.01483,3.57736 -108.66288,-45.10577 -111.66662,-103.09529 -3.41304,-65.89139 51.08879,-121.14557 115.95244,-124.04756 72.76722,-3.25559 133.63335,57.07176 136.42851,128.80959 3.10316,79.64258 -63.05473,146.12492 -141.66674,148.80945" />
    <path
       style="fill:#ff0000;fill-opacity:0.87058824"
       id="path3346"
       d="m 124.42485,84.449884 c 11.51801,-7.637348 34.07684,-17.661501 -20.69172,11.421122 -2.40343,1.276245 4.51192,-3.043634 6.77081,-4.561108 4.94384,-3.321176 9.89484,-6.631692 14.84095,-9.949487 12.39947,-8.922237 24.838,-17.773083 37.59818,-26.176863 24.32339,-14.104361 33.83253,-25.245112 57.6724,-26.62518 9.33372,0.270331 12.94929,7.568214 16.31847,15.173717 4.8315,10.767122 5.87384,22.471222 6.53034,34.098797 0.23826,12.792813 1.45578,25.628348 -0.66738,38.304068 -2.62855,10.09846 -6.13814,19.89368 -8.25021,30.13028 -0.0552,2.24461 -0.38422,5.80324 0.56033,7.96071 2.93978,6.71473 12.1526,9.26508 18.3353,11.26695 11.42312,3.1953 21.71178,3.76719 33.12835,0.64078 1.58857,-0.48241 3.2004,-0.89397 4.7657,-1.44722 1.4608,-0.51632 2.91554,-1.06806 4.30279,-1.75802 1.23315,-0.61331 4.73851,-2.80849 3.53444,-2.13988 -10.67709,5.92887 -21.0844,12.35729 -31.95577,17.92193 -1.4567,0.74562 2.44517,-2.18307 3.55568,-3.38502 1.20779,-1.30725 2.25738,-2.75224 3.38606,-4.12835 5.92611,-7.44347 11.12069,-15.40302 16.4333,-23.28055 11.24705,-15.30927 30.89287,-21.12258 47.5119,-29.23744 0.72752,-0.35524 9.97566,-0.93075 10.49562,-0.96764 10.11645,-0.26387 19.44432,-2.63715 26.59427,6.35077 1.20923,1.52009 2.04245,3.30454 3.06368,4.9568 5.96719,11.98483 5.59291,25.43324 4.64461,38.44773 -2.11938,15.5403 -10.48604,28.52374 -20.31292,40.31799 -11.25093,11.62144 -23.1205,22.66345 -35.18797,33.43507 -4.79073,4.91088 -14.27984,13.66893 -14.6353,21.15393 -0.0399,0.83933 0.39025,1.63462 0.58537,2.45193 0.59058,0.85308 0.99204,1.87468 1.77173,2.55922 6.1001,5.35572 22.0729,10.491 29.78819,13.40979 13.96656,5.95144 28.54342,10.98954 41.28434,19.35819 8.53012,6.03919 12.50138,12.76764 14.64117,22.76669 1.7651,10.68626 -0.34507,20.89258 -3.81056,30.97251 -7.39257,14.2507 -11.59569,28.14576 -14.05526,43.95629 -1.4253,13.88773 -2.65543,27.98598 -1.45019,41.92838 2.22082,12.19298 9.6755,22.1257 16.60611,32.02744 6.26061,9.27033 14.56527,16.726 20.1133,26.46863 6.40111,13.33207 2.33444,23.37031 -1.80732,36.42423 -5.26676,18.39838 -10.86184,36.67423 -14.53479,55.471 -2.84485,15.91855 -3.43874,32.0939 -3.69646,48.22374 0.29986,8.19727 -0.64125,16.45327 0.21531,24.63445 0.54811,5.23505 1.41386,8.04065 2.65796,13.20557 4.10691,13.83643 8.90456,27.48588 12.07117,41.57969 2.73236,11.80911 1.37077,17.85799 -5.975,27.31436 -6.79108,7.77573 -14.9023,14.631 -23.80344,19.90845 -37.84637,22.43894 -29.71813,18.14694 -51.87514,29.24056 -18.29632,9.19336 -37.77501,15.55766 -56.71105,23.19984 -1.22066,0.48287 -9.86413,3.87301 -11.36072,4.57054 -1.46848,0.68443 -5.69105,3.09895 -4.28488,2.29424 67.89097,-38.85209 35.19857,-24.70044 28.43451,-14.2281 -0.0597,0.94723 -0.3193,1.90297 -0.17926,2.8417 1.199,8.03671 12.28468,17.74756 17.79891,22.84916 19.89483,16.43229 42.99171,28.18311 66.33956,38.82863 21.25092,9.58134 43.51878,15.95454 66.58871,18.96212 6.19943,0.3413 12.67947,0.2853 18.75307,-1.25936 5.87391,-1.49388 11.57766,-4.82339 17.02277,-7.35365 2.81602,-1.61827 11.33139,-6.34981 8.44805,-4.8548 -7.65687,3.97009 -14.68026,9.3017 -22.77367,12.28263 -4.57674,1.68568 8.1066,-5.4314 12.03188,-8.32627 12.19215,-8.99163 23.0648,-18.93785 33.7233,-29.65395 9.81431,-11.26204 19.99753,-22.70332 25.94469,-36.60709 3.26621,-7.636 3.59065,-10.7353 5.4706,-18.87519 4.0757,-20.71964 2.56604,-41.56448 -0.67466,-62.2397 -3.31346,-24.85527 -15.79409,-46.62946 -27.53695,-68.31416 -15.28239,-28.65147 -30.55526,-57.34121 -44.17032,-86.83216 -7.40096,-18.51168 -11.14425,-38.21832 -14.15888,-57.8483 -0.73542,-13.2015 -2.96367,-26.46566 -0.78344,-39.63818 0.88315,-5.33586 3.89822,-16.87879 5.24181,-22.21839 8.10743,-23.61516 15.13305,-47.56018 22.40599,-71.43595 5.19503,-16.97571 10.69622,-33.82923 13.89533,-51.31808 2.04514,-13.21843 2.38004,-26.62897 2.41872,-39.98137 -0.17537,-15.03411 0.0732,-30.05294 0.90013,-45.06535 0,0 36.01332,-18.10219 36.01332,-18.10219 l 0,0 c -0.81147,14.90203 -0.67448,29.76513 -0.57204,44.68552 -0.16686,13.58286 0.0393,27.23669 -2.2304,40.6833 -3.33063,17.86682 -9.27137,35.02611 -14.83656,52.29915 -7.55761,23.71351 -14.7945,47.52669 -22.3987,71.22452 -2.7436,10.21353 -5.88343,20.60511 -6.37417,31.2529 -0.44302,9.61237 1.1776,19.31084 1.88723,28.86134 2.48522,19.47499 6.07625,38.90677 12.69522,57.44616 11.96229,30.1464 26.5484,59.08329 42.68735,87.21073 12.52807,21.65254 27.15274,43.06236 30.15874,68.49774 2.74128,21.09976 5.08337,42.38947 1.18147,63.54152 -1.6172,8.48677 -1.80934,11.70458 -4.97252,19.72541 -5.79529,14.69505 -16.5683,26.40356 -26.61647,38.28521 -3.34745,3.41534 -6.58041,6.94677 -10.04234,10.24601 -26.05849,24.83393 -57.01507,43.37712 -88.66835,60.27207 -3.9471,1.81654 -8.84078,4.25569 -13.08538,5.57539 -7.7159,2.39897 -16.02915,2.01986 -23.92446,1.0001 -22.7537,-4.11394 -44.48767,-11.34468 -65.54467,-20.95935 -24.00527,-10.722 -47.53569,-22.98159 -68.63427,-38.77052 -6.97887,-5.98434 -18.1173,-15.60637 -20.73745,-24.91226 -0.37824,-1.34339 -0.36353,-2.76746 -0.5453,-4.15119 0.18993,-1.36009 0.0269,-2.81883 0.56978,-4.08027 0.4706,-1.09358 1.3316,-2.06936 2.3453,-2.6937 18.58623,-11.4473 34.20425,-21.99241 54.01214,-28.71146 18.91196,-6.96803 37.93732,-13.76533 55.87355,-23.06644 7.52384,-3.92159 41.55527,-21.8496 -16.50401,10.26846 -2.55098,1.41119 4.85895,-3.22319 7.26416,-4.87059 5.81466,-3.98265 11.50006,-8.12441 16.04928,-13.58363 7.41949,-8.42296 9.72715,-12.47913 7.62346,-24.03939 -2.64415,-14.20049 -6.82955,-27.97459 -11.62738,-41.59038 -1.30239,-4.76176 -2.61114,-8.88649 -3.25983,-13.79018 -1.09101,-8.24747 -0.17905,-16.68872 -0.28388,-24.96592 0.51185,-16.48547 1.65457,-32.97243 4.29705,-49.26841 3.52794,-18.75172 9.12672,-36.92634 13.61911,-55.45632 3.3847,-12.63543 8.70973,-20.17005 2.77724,-33.24842 -5.36582,-9.68138 -13.74341,-16.92132 -19.69667,-26.23003 -7.39219,-10.44761 -14.75755,-21.23213 -17.45233,-33.97522 -1.53445,-14.33862 0.005,-28.74459 1.44655,-43.04587 2.25148,-15.47054 5.41593,-30.63404 13.27127,-44.38081 3.13944,-9.3788 5.72284,-18.6958 3.97111,-28.67836 -1.38589,-8.55497 -4.94723,-15.21583 -12.25151,-20.30276 -12.50768,-8.05203 -26.57541,-13.56575 -40.40937,-18.88687 -9.14678,-3.4628 -25.05577,-8.13443 -32.18523,-14.8599 -1.07013,-1.00949 -1.64887,-2.43685 -2.4733,-3.65527 -0.4741,-1.44238 -1.30012,-2.81377 -1.42229,-4.32714 -0.65796,-8.15054 9.46952,-18.68422 14.5347,-23.99684 12.09889,-10.6641 24.05403,-21.52722 35.42333,-32.96203 9.91256,-10.93234 18.60834,-23.14435 21.28948,-37.97487 1.31797,-12.07206 1.24067,-24.55642 -3.89249,-35.81659 -0.85614,-1.32568 -1.53116,-2.78772 -2.56843,-3.97705 -5.99243,-6.87088 -16.69451,-3.73856 -24.52924,-3.55303 -1.80431,0.23315 -3.62107,0.38462 -5.41293,0.69945 -1.64405,0.28887 -6.2741,2.03253 -4.88321,1.10962 10.28149,-6.8222 21.27655,-12.50564 31.79055,-18.96375 0.95623,-0.58736 -2.12686,0.76012 -3.09058,1.3351 -2.25075,1.34285 -3.47842,2.98573 -5.22926,4.89738 -5.58709,7.84564 -10.62903,16.07842 -16.69748,23.5799 -0.68253,0.98078 -5.0872,7.56272 -6.30101,8.35287 -17.74504,11.55139 -32.24175,23.17462 -51.94029,27.8512 -11.84946,2.17136 -22.63151,0.97921 -34.11235,-2.74625 -7.87453,-2.89203 -17.10827,-6.4909 -21.14721,-14.59222 -1.23008,-2.46731 -1.12407,-6.78282 -1.22927,-9.40598 1.89701,-10.37761 5.47,-20.25227 8.52187,-30.32249 3.08005,-12.20721 1.52943,-24.9582 1.3585,-37.432817 -0.71578,-11.054604 -1.5883,-22.253434 -6.20438,-32.494577 -3.47968,-6.882864 -5.43038,-11.363051 -13.95286,-10.699335 -2.59825,0.288535 -4.14972,0.382859 -6.71208,0.985967 -14.03151,3.302631 -37.67258,22.025057 21.00258,-14.125807 -13.32103,8.193763 -26.11024,17.212852 -38.69886,26.481605 -23.03225,15.751143 -46.33868,31.377171 -71.486101,43.580204 0,0 33.319971,-25.886156 33.319971,-25.886156 z"
       inkscape:connector-curvature="0" />
  </g>
</svg>
